#!OML:ASF E:\id_vita\Project 1\Capture day 1\Session 1\Female.ASF
:FULLY-SPECIFIED
:DEGREES
283
root 28.3042 15.3034 2.69491 -131.098 -74.936 156.565
lowerback 5.39769 0.904531 -3.22934
upperback -3.56064 0.847725 -0.994719
thorax -6.78639 0.528512 0.678144
lowerneck 7.23591 5.27216 -3.18954
upperneck -22.6217 5.59844 -3.49113
head -8.1925 3.05184 -1.10884
rclavicle 2.42517e-014 -4.77083e-015
rhumerus -14.8967 -5.09366 -30.0791
rradius 120.796
rwrist 6.04267
rhand -49.101 26.4937
rfingers 7.12502
rthumb -21.726 -2.30709
lclavicle 2.42517e-014 -4.77083e-015
lhumerus 9.74656 9.34508 43.1995
lradius 102.456
lwrist -1.12777
lhand -41.9662 34.1748
lfingers 7.12502
lthumb -14.8625 63.6217
rfemur -63.5232 3.25117 10.1439
rtibia 18.7286
rfoot -8.06166 -19.4267
rtoes -25.1923
lfemur -35.1142 -4.13059 -38.4224
ltibia 48.8069
lfoot -24.7568 31.0437
ltoes -0.450707
284
root 28.3759 15.3368 2.70876 -132.666 -74.5961 157.674
lowerback 5.18781 0.979042 -3.14291
upperback -3.78426 0.948194 -1.05987
thorax -6.90403 0.573152 0.550754
lowerneck 6.91767 5.35502 -2.873
upperneck -21.2769 5.87048 -3.43973
head -7.6729 3.16181 -1.1299
rclavicle 9.74045e-015 2.42517e-014
rhumerus -14.696 -4.38213 -31.1067
rradius 120.717
rwrist 6.3934
rhand -49.3341 26.3224
rfingers 7.12502
rthumb -21.9499 -2.45226
lclavicle 9.74045e-015 2.42517e-014
lhumerus 9.81494 9.02369 43.2786
lradius 102.591
lwrist -0.845033
lhand -41.7837 34.2441
lfingers 7.12502
lthumb -14.6867 63.704
rfemur -63.0292 3.71848 10.0497
rtibia 18.9083
rfoot -7.29235 -18.8246
rtoes -26.23
lfemur -33.9833 -3.69253 -38.2815
ltibia 47.1099
lfoot -25.7289 30.9402
ltoes -1.81821
285
root 28.4443 15.369 2.72546 -133.503 -74.2416 158.285
lowerback 4.61787 1.05072 -3.09516
upperback -4.02019 1.05108 -1.16051
thorax -6.82625 0.61654 0.414582
lowerneck 7.07665 5.23008 -2.80284
upperneck -20.1792 5.80626 -3.27756
head -7.34207 3.12482 -1.06629
rclavicle -2.06736e-014 1.07344e-014
rhumerus -14.6326 -3.71358 -31.9844
rradius 120.745
rwrist 6.79813
rhand -49.7106 26.3869
rfingers 7.12502
rthumb -22.3113 -2.34498
lclavicle -2.06736e-014 1.07344e-014
lhumerus 9.87535 8.62231 43.2851
lradius 102.713
lwrist -0.90957
lhand -42.0099 34.8485
lfingers 7.12502
lthumb -14.9047 64.2923
rfemur -62.8069 3.8655 10.0839
rtibia 19.3142
rfoot -6.29653 -17.6688
rtoes -23.5615
lfemur -33.1911 -3.32272 -38.2903
ltibia 45.6612
lfoot -26.4615 30.3035
ltoes -1.7521
286
root 28.5108 15.4116 2.74256 -134.06 -73.9531 158.735
lowerback 3.83716 1.11719 -3.09028
upperback -4.19309 1.15939 -1.18245
thorax -6.56181 0.664754 0.390825
lowerneck 7.28476 5.2047 -2.89075
upperneck -19.4607 5.8223 -3.14762
head -7.15169 3.13695 -1.00423
rclavicle 9.74045e-015 -3.18055e-015
rhumerus -14.4724 -3.26753 -32.5643
rradius 120.863
rwrist 6.98268
rhand -49.5648 26.5075
rfingers 7.12502
rthumb -22.1714 -2.24107
lclavicle 9.74045e-015 -3.18055e-015
lhumerus 9.9927 8.28689 43.4743
lradius 102.634
lwrist -1.52081
lhand -42.3563 35.2178
lfingers 7.12502
lthumb -15.2384 64.6365
rfemur -62.7475 3.99524 10.0152
rtibia 20.026
rfoot -6.34372 -17.6324
rtoes -25.9371
lfemur -32.7611 -2.92267 -38.3279
ltibia 44.5201
lfoot -26.9327 29.5375
ltoes 0.0741139
287
root 28.5815 15.459 2.75871 -134.184 -73.795 158.778
lowerback 3.14458 1.06287 -3.02436
upperback -4.31799 1.10597 -1.22717
thorax -6.29046 0.629257 0.32448
lowerneck 7.22392 5.25677 -2.98918
upperneck -18.7468 5.96558 -2.91454
head -6.91993 3.19787 -0.91007
rclavicle -2.18663e-014 -8.74653e-015
rhumerus -14.0476 -2.95808 -33.2183
rradius 120.969
rwrist 7.15459
rhand -49.0695 26.4641
rfingers 7.12502
rthumb -21.6958 -2.34021
lclavicle -2.18663e-014 -8.74653e-015
lhumerus 10.1549 8.23799 43.5205
lradius 102.652
lwrist -1.93977
lhand -42.256 35.0839
lfingers 7.12502
lthumb -15.1417 64.5099
rfemur -62.7795 3.95984 9.96081
rtibia 21.0112
rfoot -6.69067 -17.6202
rtoes -27.3879
lfemur -32.6109 -2.65039 -38.3898
ltibia 43.6719
lfoot -26.6025 29.0757
ltoes 0.629948
288
root 28.653 15.5042 2.77552 -133.511 -73.657 158.11
lowerback 2.52036 0.955742 -3.01216
upperback -4.5101 0.965288 -1.35059
thorax -6.12793 0.550824 0.2101
lowerneck 7.36689 5.25895 -3.03316
upperneck -18.296 6.0171 -2.7322
head -6.80686 3.21557 -0.845132
rclavicle 1.59028e-015 4.49253e-014
rhumerus -13.7971 -2.65734 -33.8051
rradius 121.155
rwrist 7.54449
rhand -48.6515 26.1669
rfingers 7.12502
rthumb -21.2943 -2.68322
lclavicle 1.59028e-015 4.49253e-014
lhumerus 10.258 8.25948 43.4055
lradius 102.933
lwrist -2.00859
lhand -41.7755 34.966
lfingers 7.12502
lthumb -14.6789 64.4264
rfemur -62.9018 3.65412 9.84084
rtibia 22.0973
rfoot -7.36824 -17.147
rtoes -26.8314
lfemur -32.6985 -2.52553 -38.6323
ltibia 43.0732
lfoot -25.7064 28.7038
ltoes 0.224978
289
root 28.7196 15.5457 2.78755 -132.611 -73.5877 157.209
lowerback 1.90036 0.920173 -3.04249
upperback -4.7314 0.915451 -1.48258
thorax -6.00287 0.518787 0.101565
lowerneck 7.61801 5.22754 -2.95973
upperneck -17.9498 6.00231 -2.70539
head -6.73745 3.20678 -0.848553
rclavicle 5.1684e-015 -1.43125e-014
rhumerus -13.9588 -2.48176 -34.1157
rradius 121.445
rwrist 7.85532
rhand -48.1383 25.9205
rfingers 7.12502
rthumb -20.8013 -2.98449
lclavicle 5.1684e-015 -1.43125e-014
lhumerus 10.3032 8.01107 43.3474
lradius 103.245
lwrist -2.13398
lhand -41.7034 35.0149
lfingers 7.12502
lthumb -14.6094 64.4803
rfemur -63.0472 3.29481 9.70987
rtibia 23.3271
rfoot -7.6439 -16.642
rtoes -26.2838
lfemur -32.7771 -2.37807 -38.8937
ltibia 42.4996
lfoot -24.9581 28.2155
ltoes 0.424045
290
root 28.7832 15.5758 2.79261 -131.712 -73.697 156.194
lowerback 1.14012 0.826881 -2.9906
upperback -4.67415 0.816176 -1.59686
thorax -5.50061 0.456908 -0.0257746
lowerneck 7.45181 5.22787 -2.87537
upperneck -17.6335 6.03883 -2.67936
head -6.60436 3.21694 -0.84562
rclavicle -1.3418e-014 -4.77083e-015
rhumerus -13.9288 -2.62082 -34.4671
rradius 121.754
rwrist 8.00929
rhand -47.64 25.9278
rfingers 7.12502
rthumb -20.3224 -3.02893
lclavicle -1.3418e-014 -4.77083e-015
lhumerus 10.5438 8.03362 43.2673
lradius 103.509
lwrist -2.26116
lhand -41.8831 34.7687
lfingers 7.12502
lthumb -14.7825 64.2215
rfemur -63.1481 2.76256 9.88775
rtibia 24.6438
rfoot -7.01095 -16.3382
rtoes -28.805
lfemur -32.6752 -2.3038 -39.0378
ltibia 41.8948
lfoot -24.7168 27.5905
ltoes 0.769756
291
root 28.8486 15.6316 2.80409 -130.621 -73.9641 154.968
lowerback 0.779664 0.712863 -3.01735
upperback -4.76337 0.671979 -1.54802
thorax -5.38602 0.384808 0.0523341
lowerneck 7.35314 5.108 -2.83892
upperneck -17.3317 5.86432 -2.84064
head -6.48429 3.14266 -0.879902
rclavicle -4.96962e-015 4.33351e-014
rhumerus -14.0951 -2.5954 -34.4169
rradius 122.159
rwrist 8.12113
rhand -47.6151 26.1998
rfingers 7.12502
rthumb -20.2985 -2.75949
lclavicle -4.96962e-015 4.33351e-014
lhumerus 10.6364 8.05285 43.4434
lradius 103.861
lwrist -2.52823
lhand -41.6319 34.2818
lfingers 7.12502
lthumb -14.5405 63.7523
rfemur -63.0009 2.25829 9.73259
rtibia 25.8785
rfoot -7.51545 -15.8544
rtoes -27.8929
lfemur -32.4659 -2.31015 -39.1037
ltibia 41.1445
lfoot -24.5577 26.7793
ltoes 1.10318
